<?xml version="1.0" standalone="no"?>
<!DOCTYPE svg PUBLIC "-//W3C//DTD SVG 20010904//EN"
 "http://www.w3.org/TR/2001/REC-SVG-20010904/DTD/svg10.dtd">
<svg version="1.0" xmlns="http://www.w3.org/2000/svg"
 width="260.000000pt" height="260.000000pt" viewBox="0 0 260.000000 260.000000"
 preserveAspectRatio="xMidYMid meet">
<metadata>
Created by potrace 1.11, written by Peter Selinger 2001-2013
</metadata>
<g transform="translate(0.000000,260.000000) scale(0.100000,-0.100000)"
fill="#000000" stroke="none">
<path d="M437 1846 c-102 -37 -168 -117 -187 -228 -8 -44 -11 -167 -8 -360 3
-274 5 -296 25 -339 25 -56 84 -117 138 -144 39 -19 65 -20 885 -20 l845 0 45
27 c60 35 94 72 122 133 23 49 23 56 23 390 0 327 -1 342 -22 387 -29 63 -93
123 -159 148 -54 20 -73 20 -862 20 -653 -1 -814 -3 -845 -14z m476 -503 c55
-172 104 -313 107 -313 3 0 51 140 106 311 89 279 112 335 130 316 3 -3 -45
-159 -107 -346 -89 -267 -117 -341 -131 -341 -13 0 -41 75 -132 346 -103 309
-113 345 -95 342 18 -3 36 -50 122 -315z m792 291 c56 -29 80 -74 80 -149 0
-44 -6 -69 -22 -95 -21 -34 -86 -80 -114 -80 -47 -1 -42 -17 50 -169 50 -84
91 -157 91 -162 0 -6 -8 -9 -17 -7 -10 2 -58 72 -112 163 l-96 160 -77 3 -78
3 0 -166 c0 -153 -1 -166 -17 -163 -17 3 -18 29 -21 346 l-2 343 147 -3 c127
-3 154 -6 188 -24z"/>
<path d="M1410 1479 l0 -151 118 3 c95 3 124 8 152 24 63 37 87 124 55 201
-23 55 -75 74 -212 74 l-113 0 0 -151z"/>
</g>
</svg>
